<?xml version="1.0" standalone="no"?>
<!DOCTYPE svg PUBLIC "-//W3C//DTD SVG 20010904//EN"
 "http://www.w3.org/TR/2001/REC-SVG-20010904/DTD/svg10.dtd">
<svg version="1.0" xmlns="http://www.w3.org/2000/svg"
 width="600.000000pt" height="600.000000pt" viewBox="0 0 600.000000 600.000000"
 preserveAspectRatio="xMidYMid meet">
<metadata>
Created by potrace 1.11, written by Peter Selinger 2001-2013
</metadata>
<g transform="translate(0.000000,600.000000) scale(0.100000,-0.100000)"
fill="#000000" stroke="none">
<path d="M100 4219 c0 -6 36 -106 79 -223 43 -116 110 -296 149 -401 183 -493
241 -651 342 -920 59 -159 129 -348 155 -420 26 -71 53 -143 60 -160 7 -16 24
-61 38 -100 30 -83 181 -489 195 -525 6 -14 18 -46 27 -73 l17 -47 250 2 251
3 38 95 c21 52 38 95 38 95 -1 0 15 41 64 170 30 77 80 208 111 290 32 83 61
159 66 170 12 25 106 270 135 350 12 33 100 260 195 505 95 245 177 458 182
473 6 15 12 26 14 24 2 -1 16 -39 32 -83 16 -43 102 -270 191 -504 89 -234
200 -526 247 -650 47 -124 89 -235 94 -247 5 -12 41 -106 80 -210 39 -103 77
-204 85 -223 36 -90 84 -217 90 -237 l6 -23 252 0 252 0 43 117 c65 177 83
226 93 248 10 23 266 708 314 840 44 121 598 1603 620 1658 7 16 -8 17 -227
17 l-235 0 -113 -302 c-62 -167 -119 -319 -126 -338 -39 -108 -326 -878 -333
-895 -5 -11 -24 -60 -41 -110 -18 -49 -36 -99 -41 -110 -11 -25 -55 -143 -78
-210 -40 -111 -73 -202 -86 -230 -7 -16 -18 -47 -25 -68 -7 -21 -14 -37 -15
-35 -2 2 -40 102 -85 223 -137 369 -151 409 -160 430 -5 11 -27 72 -50 135
-22 63 -45 124 -50 135 -5 11 -121 324 -257 695 l-249 675 -221 3 -220 2 -67
-177 c-37 -98 -71 -187 -75 -198 -26 -64 -49 -123 -127 -330 -47 -126 -128
-340 -179 -475 -51 -135 -150 -396 -219 -580 -70 -184 -131 -344 -136 -355 -5
-11 -21 -55 -37 -97 -15 -43 -30 -72 -34 -65 -4 6 -73 194 -154 417 -180 493
-183 502 -280 770 -42 118 -83 229 -90 245 -8 17 -21 53 -30 80 -9 28 -20 59
-25 70 -5 11 -56 151 -114 310 -57 160 -113 311 -122 338 l-18 47 -243 0
c-172 0 -243 -3 -243 -11z"/>
<path d="M5265 2043 c-263 -80 -342 -435 -138 -623 83 -77 167 -106 283 -98
174 13 312 157 324 337 11 166 -67 306 -204 370 -67 31 -187 37 -265 14z"/>
</g>
</svg>
